<mxfile host="app.diagrams.net" agent="Mozilla/5.0 (Windows NT 10.0; Win64; x64) AppleWebKit/537.36 (KHTML, like Gecko) Chrome/120.0.0.0 Safari/537.36" version="26.1.3">
  <diagram name="第 1 页" id="lzWcteom-tjip95cLdTm">
    <mxGraphModel dx="478" dy="246" grid="1" gridSize="10" guides="1" tooltips="1" connect="1" arrows="1" fold="1" page="1" pageScale="1" pageWidth="827" pageHeight="1169" math="0" shadow="0">
      <root>
        <mxCell id="0" />
        <mxCell id="1" parent="0" />
        <mxCell id="cXS1nmMBP_o2JDV-IVEF-1" value="" style="endArrow=classic;html=1;rounded=0;" parent="1" edge="1">
          <mxGeometry width="50" height="50" relative="1" as="geometry">
            <mxPoint x="40" y="320" as="sourcePoint" />
            <mxPoint x="320" y="320" as="targetPoint" />
          </mxGeometry>
        </mxCell>
        <mxCell id="cXS1nmMBP_o2JDV-IVEF-2" value="" style="endArrow=classic;html=1;rounded=0;" parent="1" edge="1">
          <mxGeometry width="50" height="50" relative="1" as="geometry">
            <mxPoint x="40" y="320" as="sourcePoint" />
            <mxPoint x="40" y="80" as="targetPoint" />
          </mxGeometry>
        </mxCell>
        <mxCell id="cXS1nmMBP_o2JDV-IVEF-3" value="" style="whiteSpace=wrap;html=1;aspect=fixed;fillColor=#e1d5e7;strokeColor=#9673a6;" parent="1" vertex="1">
          <mxGeometry x="140" y="120" width="110" height="110" as="geometry" />
        </mxCell>
        <mxCell id="cXS1nmMBP_o2JDV-IVEF-4" value="" style="whiteSpace=wrap;html=1;aspect=fixed;fillColor=#f8cecc;strokeColor=#b85450;" parent="1" vertex="1">
          <mxGeometry x="120" y="140" width="110" height="110" as="geometry" />
        </mxCell>
        <mxCell id="cXS1nmMBP_o2JDV-IVEF-5" value="" style="whiteSpace=wrap;html=1;aspect=fixed;fillColor=#fff2cc;strokeColor=#d6b656;" parent="1" vertex="1">
          <mxGeometry x="100" y="160" width="110" height="110" as="geometry" />
        </mxCell>
        <mxCell id="cXS1nmMBP_o2JDV-IVEF-6" value="" style="whiteSpace=wrap;html=1;aspect=fixed;fillColor=#ffe6cc;strokeColor=#d79b00;" parent="1" vertex="1">
          <mxGeometry x="80" y="180" width="110" height="110" as="geometry" />
        </mxCell>
        <mxCell id="cXS1nmMBP_o2JDV-IVEF-7" value="" style="whiteSpace=wrap;html=1;aspect=fixed;fillColor=#d5e8d4;strokeColor=#82b366;" parent="1" vertex="1">
          <mxGeometry x="60" y="200" width="110" height="110" as="geometry" />
        </mxCell>
        <mxCell id="cXS1nmMBP_o2JDV-IVEF-8" value="" style="endArrow=classic;html=1;rounded=0;dashed=1;" parent="1" edge="1">
          <mxGeometry width="50" height="50" relative="1" as="geometry">
            <mxPoint x="40" y="320" as="sourcePoint" />
            <mxPoint x="310" y="170" as="targetPoint" />
          </mxGeometry>
        </mxCell>
        <mxCell id="cXS1nmMBP_o2JDV-IVEF-9" value="时间" style="text;align=center;verticalAlign=middle;rounded=0;fontFamily=宋体;fontSize=16;" parent="1" vertex="1">
          <mxGeometry x="260" y="320" width="60" height="30" as="geometry" />
        </mxCell>
        <mxCell id="cXS1nmMBP_o2JDV-IVEF-12" value="&lt;span style=&quot;color: rgb(0, 0, 0); background-color: rgb(251, 251, 251); float: none; display: inline !important;&quot;&gt;&lt;font&gt;码&lt;/font&gt;&lt;/span&gt;" style="text;html=1;align=center;verticalAlign=middle;whiteSpace=wrap;rounded=0;fontFamily=宋体;fontSize=16;" parent="1" vertex="1">
          <mxGeometry x="275" y="180" width="30" height="30" as="geometry" />
        </mxCell>
        <mxCell id="DeakvAQwpQACBnHtooIX-2" value="频率" style="text;fontFamily=宋体;fontSize=16;whiteSpace=wrap;" parent="1" vertex="1">
          <mxGeometry x="20" y="90" width="20" height="50" as="geometry" />
        </mxCell>
        <mxCell id="2D7aSKPBNdW0Bogho-Zo-1" value="时间" style="text;align=center;verticalAlign=middle;rounded=0;fontFamily=宋体;fontSize=16;html=1;" vertex="1" parent="1">
          <mxGeometry x="290" y="230" width="60" height="30" as="geometry" />
        </mxCell>
      </root>
    </mxGraphModel>
  </diagram>
</mxfile>
